<?xml version="1.0" encoding="UTF-8" standalone="no"?>
<svg
   xmlns:dc="http://purl.org/dc/elements/1.1/"
   xmlns:cc="http://creativecommons.org/ns#"
   xmlns:rdf="http://www.w3.org/1999/02/22-rdf-syntax-ns#"
   xmlns:svg="http://www.w3.org/2000/svg"
   xmlns="http://www.w3.org/2000/svg"
   xmlns:xlink="http://www.w3.org/1999/xlink"
   xmlns:sodipodi="http://sodipodi.sourceforge.net/DTD/sodipodi-0.dtd"
   xmlns:inkscape="http://www.inkscape.org/namespaces/inkscape"
   viewBox="0 0 610 560"
   version="1.1"
   id="svg724"
   sodipodi:docname="Diplomacy.svg"
   inkscape:version="0.92.1 r15371">
  <metadata
     id="metadata728">
    <rdf:RDF>
      <cc:Work
         rdf:about="">
        <dc:format>image/svg+xml</dc:format>
        <dc:type
           rdf:resource="http://purl.org/dc/dcmitype/StillImage" />
      </cc:Work>
    </rdf:RDF>
  </metadata>
  <sodipodi:namedview
     pagecolor="#ffffff"
     bordercolor="#666666"
     borderopacity="1"
     objecttolerance="10"
     gridtolerance="10"
     guidetolerance="10"
     inkscape:pageopacity="0"
     inkscape:pageshadow="2"
     inkscape:window-width="1920"
     inkscape:window-height="1017"
     id="namedview726"
     showgrid="false"
     inkscape:zoom="2"
     inkscape:cx="179.77591"
     inkscape:cy="235.34673"
     inkscape:window-x="-8"
     inkscape:window-y="-8"
     inkscape:window-maximized="1"
     inkscape:current-layer="svg724" />
  <title
     id="title2">Diplomacy</title>
  <desc
     id="desc4">
Variant SVG coding 2006 by Martin Asal
Copyright: CC-BY-SA-3.0-DE  (http://creativecommons.org/licenses/by-sa/3.0/deed.de)
Created for Diplomap (http://www.games2relax.net/diplomap/)
</desc>
  <defs
     id="defs8">
    <style
       type="text/css"
       id="style6"><![CDATA[
	.l, .Unowned	{fill:#FFFFDD; stroke:black; stroke-linejoin:round}
	.w		{fill:#99CCFF; stroke:black; stroke-linejoin:round}
	.s		{fill:#DDDDDD; stroke:black; stroke-linejoin:round}

	text		{font-family:Arial,Helvetica,sans-serif; font-size:8px}

	.Austria	{fill:#FF0000; stroke:black}
	.England	{fill:#0000FF; stroke:black}
	.France 	{fill:#00FFFF; stroke:black}
	.Germany	{fill:#808080; stroke:black}
	.Italy  	{fill:#00FF00; stroke:black}
	.Russia 	{fill:#008000; stroke:black}
	.Turkey 	{fill:#FFFF00; stroke:black}
]]></style>
  </defs>
  <g
     title="Norwegian Sea"
     id="g14">
    <polygon
       class="w"
       points="362,33 357,39 343,44 324,54 320,64 310,75 309,84 303,86 292,111 277,132 269,134 264,142 258,141 236,154 198,154 171,181 171,197 158,193 152,194 154,188 161,185 162,181   148,177 148,0 362,0"
       id="polygon10" />
    <text
       x="220"
       y="70"
       id="text12">NWG</text>
  </g>
  <g
     title="North Sea"
     id="g20">
    <path
       class="w"
       d="M171,197 L171,181 A27,27 0,0,1 198,154 L241,154 L241,224 L248,224 L245,237 L211,237 L211,301 L173,301 L165,293 L140,197Z"
       id="path16" />
    <text
       x="190"
       y="230"
       id="text18">NTH</text>
  </g>
  <g
     title="Adriatic Sea"
     id="g32">
    <polygon
       class="w"
       points="322,480 297,456 300,453 290,453 278,443 272,424 260,417 261,401 270,398 276,399 275,403 278,410 282,401 286,402 289,418 306,436 331,454 331,477 335,480"
       id="polygon28" />
    <text
       x="308"
       y="460"
       id="text30">ADR</text>
  </g>
  <g
     title="Aegean Sea"
     id="g38">
    <polygon
       class="w"
       points="376,537 371,520 378,521 377,513 386,516 385,509 370,494 371,491 378,494 368,483 371,477 379,484 382,483 381,477 386,478 380,472 392,472 400,468 408,470 410,473 414,475   410,482 409,487 417,486 417,489 420,495 417,498 417,507 423,510 427,524 435,523 435,530 416,549 412,547 387,546 383,544"
       id="polygon34" />
    <text
       x="392"
       y="510"
       id="text36">AEG</text>
  </g>
  <g
     title="Albania"
     id="g44">
    <polygon
       class="l"
       points="331,454 331,477 335,480 339,487 350,477 350,471 346,466 346,452 337,446 330,445"
       id="polygon40" />
    <text
       x="333"
       y="460"
       id="text42">Alb</text>
  </g>
  <g
     title="Ankara"
     id="g52">
    <polygon
       class="l"
       points="555,438 551,437 520,441 514,438 511,440 502,433 481,438 470,447 464,457 468,461 468,479 466,491 473,491 490,480 501,482 508,480 531,460 546,462 555,460 557,449"
       id="polygon46" />
    <text
       x="510"
       y="455"
       id="text48">Ank</text>
    <use
       xlink:href="#SC"
       id="use50"
       transform="translate(" />
  </g>
  <g
     title="Apulia"
     id="g58">
    <polygon
       class="l"
       points="304,484 310,480 318,485 322,485 322,480 297,456 300,453 290,453 278,443 274,447 279,451 280,455 279,458 293,481"
       id="polygon54" />
    <text
       x="291"
       y="470"
       id="text56">Apu</text>
  </g>
  <g
     title="Armenia"
     id="g64">
    <polygon
       class="l"
       points="609,493 584,478 563,479 562,471 556,467 555,460 557,449 555,438 570,427 589,442 594,439 603,441 609,440"
       id="polygon60" />
    <text
       x="585"
       y="467"
       id="text62">Arm</text>
  </g>
  <g
     title="Baltic Sea"
     id="g70">
    <polygon
       class="w"
       points="266,255 271,260 278,254 277,250 280,248 279,243 282,253 289,254 294,245 305,244 312,229 311,220 359,220 349,229 347,243 347,248 348,254 344,262 337,264 334,273 328,274   326,265 314,266 307,273 294,275 286,274 287,267 280,266 266,275 261,274 260,269 256,266 256,263 254,255"
       id="polygon66" />
    <text
       x="308"
       y="260"
       id="text68">BAL</text>
  </g>
  <g
     title="Barents Sea"
     id="g76">
    <polygon
       class="w"
       points="540 0 535,9 530,6 517,19 516,33 513,38 513,23 507,20 505,26 499,33 492,48 495,58 488,60 479,57 477,55 481,50 473,43 466,45 472,62 478,66 478,74 472,72 468,74 457,91   469,100 467,106 462,109 444,101 442,110 447,115 454,119 452,122 434,118 426,103 426,94 414,88 412,83 445,84 457,79 459,66 453,61 417,47 405,49 401,45 397,48 391,47 395,41 394,38 384,33 382,40   380,33 377,31 374,38 371,33 366,42 366,33 362,33 362,0"
       id="polygon72" />
    <text
       x="440"
       y="15"
       id="text74">BAR</text>
  </g>
  <g
     title="Belgium"
     id="g84">
    <polygon
       class="l"
       points="191,299 194,303 206,306 205,311 208,315 210,326 205,331 192,323 184,315 169,311 173,301"
       id="polygon78" />
    <text
       x="192"
       y="321"
       id="text80">Bel</text>
    <use
       xlink:href="#SC"
       id="use82"
       transform="translate(" />
  </g>
  <g
     title="Berlin"
     id="g92">
    <polygon
       class="l"
       points="294,275 286,274 287,267 280,266 266,275 266,283 262,287 264,293 261,296 263,310 288,305 296,300 297,296 292,290"
       id="polygon86" />
    <text
       x="272"
       y="292"
       id="text88">Ber</text>
    <use
       xlink:href="#SC"
       id="use90"
       transform="translate(" />
  </g>
  <g
     title="Black Sea"
     id="g98">
    <polygon
       class="w"
       points="440,458 430,455 426,450 422,441 425,427 429,426 430,423 432,409 439,404 438,397 446,378 459,375 461,377 459,379 465,383 476,381 478,383 472,385 468,392 477,396 477,401   486,404 488,397 494,396 497,392 507,389 506,384 494,387 485,378 503,364 526,351 527,354 514,365 517,371 520,371 515,384 511,383 510,386 517,393 528,394 554,406 567,408 573,417 570,427 555,438   551,437 520,441 514,438 511,440 502,433 481,438 470,447 464,457 442,460"
       id="polygon94" />
    <text
       x="500"
       y="418"
       id="text96">BLA</text>
  </g>
  <g
     title="Bohemia"
     id="g104">
    <polygon
       class="l"
       points="281,356 276,346 268,343 264,329 266,325 278,326 288,321 297,322 311,334 314,332 321,339 322,347 316,348 303,346 295,349 292,357"
       id="polygon100" />
    <text
       x="283"
       y="347"
       id="text102">Boh</text>
  </g>
  <g
     title="Brest"
     id="g112">
    <polygon
       class="l"
       points="150,319 144,318 142,312 136,310 136,326 124,323 122,318 102,317 100,322 103,328 109,329 123,344 122,350 123,357 128,363 146,365 146,337 148,329"
       id="polygon106" />
    <text
       x="130"
       y="345"
       id="text108">Bre</text>
    <use
       xlink:href="#SC"
       id="use110"
       transform="translate(" />
  </g>
  <g
     title="Budapest"
     id="g120">
    <polygon
       class="l"
       points="394,376 395,382 401,385 406,396 401,402 387,402 367,406 365,412 360,413 342,410 338,412 335,410 332,410 323,408 321,398 311,394 308,383 311,375 322,370 335,354 337,350   350,347 360,351 368,353 377,360 378,363 384,365"
       id="polygon114" />
    <text
       x="350"
       y="390"
       id="text116">Bud</text>
    <use
       xlink:href="#SC"
       id="use118"
       transform="translate(" />
  </g>
  <g
     title="Bulgaria (ec)"
     id="g126">
    <polyline
       class="l"
       points="413,464 412,454 420,451 426,450 422,441 425,427 429,426 430,423 422,420 410,420 404,422 398,427 390,425 382,427 375,423 370,425 367,421 365,425 368,433 371,438"
       id="polyline122" />
    <text
       x="395"
       y="443"
       id="text124">Bul</text>
  </g>
  <g
     title="Bulgaria (sc)"
     id="g132">
    <polyline
       class="l"
       points="371,438 366,439 371,456 365,461 369,464 376,464 388,460 392,472 400,468 408,470 413,464 412,454"
       id="polyline128" />
    <use
       xlink:href="#SC"
       transform="translate("
       id="use130" />
  </g>
  <g
     title="Burgundy"
     id="g138">
    <polygon
       class="l"
       points="192,323 205,331 204,338 211,346 213,352 209,363 208,367 194,382 178,381 178,390 173,396 168,395 163,387 165,383 158,380 156,374 165,365 185,344 188,332"
       id="polygon134" />
    <text
       x="185"
       y="371"
       id="text136">Bur</text>
  </g>
  <g
     title="Clyde"
     id="g144">
    <polygon
       class="l"
       points="138,214 130,208 129,197 139,189 140,182 148,177 162,181 161,185 154,188 152,194 146,200 144,213"
       id="polygon140" />
    <text
       x="133"
       y="201"
       id="text142">Cly</text>
  </g>
  <g
     title="Constantinople"
     id="g154">
    <polygon
       class="l"
       points="408,470 410,473 414,475 410,482 409,487 417,486 417,489 423,487 432,493 452,495 466,491 468,479 468,461 464,457 442,460 440,458 430,455 426,450 420,451 412,454 413,464"
       id="polygon146" />
    <polygon
       class="w"
       points="414,475 421,467 435,463 440,458 442,460 439,463 448,464 425,475"
       id="polygon148" />
    <text
       x="435"
       y="483"
       id="text150">Con</text>
    <use
       xlink:href="#SC"
       transform="translate("
       id="use152" />
  </g>
  <g
     title="Denmark"
     id="g164">
    <polygon
       class="l"
       points="279,243 275,242 269,243 266,240 267,234 266,221 263,223 248,224 245,237 243,247 244,254 254,255 266,255 271,260 278,254 277,250 280,248 "
       id="polygon156" />
    <polygon
       class="w"
       points="269,243 268,246 263,247 266,255 254,255 257,247 266,240"
       id="polygon158" />
    <text
       x="250"
       y="235"
       id="text160">Den</text>
    <use
       xlink:href="#SC"
       transform="translate("
       id="use162" />
  </g>
  <g
     title="Eastern Mediterranean"
     id="g170">
    <polygon
       class="w"
       points="435,530 441,526 447,528 453,534 464,531 466,521 475,520 485,528 491,530 505,526 511,514 520,517 527,508 530,509 525,518 526,530 532,535 528,559 400,559 400,554 414,552 416,549"
       id="polygon166" />
    <text
       x="455"
       y="550"
       id="text168">EAS</text>
  </g>
  <g
     title="Edinburgh"
     id="g178">
    <polygon
       class="l"
       points="152,194 158,193 171,197 170,202 165,210 158,214 151,215 157,216 161,218 163,226 155,228 145,217 144,213 146,200"
       id="polygon172" />
    <text
       x="152"
       y="202"
       id="text174">Edi</text>
    <use
       xlink:href="#SC"
       transform="translate("
       id="use176" />
  </g>
  <g
     title="English Channel"
     id="g184">
    <polygon
       class="w"
       points="173,301 169,311 153,315 155,320 150,319 144,318 142,312 136,310 136,326 124,323 122,318 102,317 88,303 100,291 110,292 120,295 124,291 134,294 147,295 160,298 168,296"
       id="polygon180" />
    <text
       x="135"
       y="306"
       id="text182">ENG</text>
  </g>
  <g
     title="Finland"
     id="g190">
    <polygon
       class="l"
       points="362,107 368,108 372,120 366,121 359,136 345,151 347,160 350,165 348,178 349,184 357,186 365,191 384,185 402,177 412,161 410,152 414,147 410,130 402,118 401,110 392,92   393,73 387,68 388,61 386,58 388,54 379,48 370,49 369,61 355,62 346,54 342,61 356,71"
       id="polygon186" />
    <text
       x="375"
       y="160"
       id="text188">Fin</text>
  </g>
  <g
     title="Galicia"
     id="g196">
    <polygon
       class="l"
       points="333,330 341,330 344,332 353,327 356,323 361,324 367,329 374,327 379,324 383,327 385,332 399,338 404,354 403,360 404,371 394,376 384,365 378,363 377,360 368,353 360,351   350,347 337,350 329,346 322,347 321,339 322,347 321,339 325,340 329,338"
       id="polygon192" />
    <text
       x="355"
       y="343"
       id="text194">Gal</text>
  </g>
  <g
     title="Gascony"
     id="g202">
    <polygon
       class="l"
       points="128,363 121,382 122,384 112,399 113,407 123,412 134,417 135,414 142,417 149,403 157,397 168,395 163,387 165,383 158,380 156,374 149,372 146,365"
       id="polygon198" />
    <text
       x="130"
       y="400"
       id="text200">Gas</text>
  </g>
  <g
     title="Greece"
     id="g210">
    <polygon
       class="l"
       points="339,487 346,498 350,498 347,500 352,508 367,507 371,511 355,510 350,514 357,521 359,533 360,528 367,536 368,531 376,537 371,520 378,521 377,513 386,516 385,509 370,494   371,491 378,494 368,483 371,477 379,484 382,483 381,477 386,478 380,472 392,472 388,460 376,464 369,464 361,467 356,471 350,471 350,477"
       id="polygon204" />
    <text
       x="352"
       y="490"
       id="text206">Gre</text>
    <use
       xlink:href="#SC"
       transform="translate("
       id="use208" />
  </g>
  <g
     title="Gulf of Lyon"
     id="g216">
    <polygon
       class="w"
       points="115,469 110,461 124,444 131,439 146,438 157,432 158,425 158,418 169,412 176,417 188,422 198,421 211,416 222,410 233,415 238,431 224,431 221,434 211,436 213,451 218,454   218,458 214,461 206,462 205,466 154,466 148,463 142,469"
       id="polygon212" />
    <text
       x="170"
       y="457"
       id="text214">LYO</text>
  </g>
  <g
     title="Gulf of Bothnia"
     id="g222">
    <polygon
       class="w"
       points="311,220 314,209 322,206 328,203 331,193 326,183 320,182 321,161 330,146 343,138 351,128 347,121 349,112 355,104 362,107 368,108 372,120 366,121 359,136 345,151 347,160   350,165 348,178 349,184 357,186 365,191 384,185 402,177 403,183 411,184 414,187 408,187 400,192 399,197 387,196 371,198 369,202 365,204 368,210 372,213 373,221 377,227 373,229 366,228 359,220"
       id="polygon218" />
    <text
       x="328"
       y="175"
       id="text220">BOT</text>
  </g>
  <g
     title="Helgoland Bight"
     id="g228">
    <polygon
       class="w"
       points="245,237 243,247 244,254 243,257 245,263 244,270 244,273 235,277 234,274 230,273 226,275 211,274 211,237"
       id="polygon224" />
    <text
       x="220"
       y="265"
       id="text226">HEL</text>
  </g>
  <g
     title="Holland"
     id="g236">
    <polygon
       class="l"
       points="226,275 227,280 225,292 220,298 215,297 213,302 210,313 208,315 205,311 206,306 194,303 191,299 198,289 205,276 205,279 207,279 211,274"
       id="polygon230" />
    <text
       x="210"
       y="290"
       id="text232">Hol</text>
    <use
       xlink:href="#SC"
       transform="translate("
       id="use234" />
  </g>
  <g
     title="Ionian Sea"
     id="g242">
    <polygon
       class="w"
       points="289,511 290,514 295,515 308,500 311,491 304,484 310,480 318,485 322,485 322,480 335,480 339,487 346,498 350,498 347,500 352,508 367,507 371,511 355,510 350,514 357,521   359,533 360,528 367,536 368,531 376,537 383,544 380,547 383,550 400,554 400,559 232,559 234,551 232,544 225,535 231,531 236,524 247,513 258,519 273,531 281,532 282,521 285,513 285,511"
       id="polygon238" />
    <text
       x="315"
       y="520"
       id="text240">ION</text>
  </g>
  <g
     title="Irish Sea"
     id="g248">
    <polygon
       class="w"
       points="100,291 112,287 122,281 130,282 127,276 119,272 116,272 115,265 128,262 126,256 121,257 132,250 135,250 139,240 136,229 130,227 120,227 110,232 109,246 98,259 87,257   70,261 58,273 88,303"
       id="polygon244" />
    <text
       x="95"
       y="270"
       id="text246">IRI</text>
  </g>
  <g
     title="Kiel"
     id="g258">
    <polygon
       class="l"
       points="244,254 243,257 245,263 244,270 244,273 235,277 234,274 230,273 226,275 227,280 225,292 220,298 215,297 213,302 232,308 241,316 243,322 263,310 261,296 264,293   262,287 266,283 266,275 261,274 260,269 256,266 256,263 254,255"
       id="polygon250" />
    <polygon
       class="w"
       points="244,270 244,273 256,266 256,263 "
       id="polygon252" />
    <text
       x="237"
       y="285"
       id="text254">Kie</text>
    <use
       xlink:href="#SC"
       transform="translate("
       id="use256" />
  </g>
  <g
     title="Liverpool"
     id="g266">
    <polygon
       class="l"
       points="128,262 126,256 121,257 132,250 135,250 139,240 136,229 130,227 130,223 138,217 138,214 144,213 145,217 155,228 155,239 151,248 150,264 143,262"
       id="polygon260" />
    <text
       x="138"
       y="230"
       id="text262">Lvp</text>
    <use
       xlink:href="#SC"
       transform="translate("
       id="use264" />
  </g>
  <g
     title="Livonia"
     id="g272">
    <polygon
       class="l"
       points="369,202 365,204 368,210 372,213 373,221 377,227 373,229 366,228 359,220 349,229 347,243 354,251 356,261 362,260 367,265 365,281 372,283 379,290 389,285 392,278   404,275 405,239 409,228 405,217 394,205 382,206 372,205"
       id="polygon268" />
    <text
       x="380"
       y="260"
       id="text270">Lvn</text>
  </g>
  <g
     title="London"
     id="g280">
    <polygon
       class="l"
       points="166,269 168,270 171,268 177,270 178,274 176,283 165,293 172,294 168,296 160,298 147,295 145,281 150,277 153,271"
       id="polygon274" />
    <text
       x="160"
       y="280"
       id="text276">Lon</text>
    <use
       xlink:href="#SC"
       transform="translate("
       id="use278" />
  </g>
  <g
     title="Marseilles"
     id="g288">
    <polygon
       class="l"
       points="142,417 149,403 157,397 168,395 173,396 178,390 178,381 194,382 197,385 203,379 207,386 204,390 207,396 201,399 204,402 203,410 211,416 198,421 188,422 176,417   169,412 158,418 158,425 154,427"
       id="polygon282" />
    <text
       x="173"
       y="412"
       id="text284">Mar</text>
    <use
       xlink:href="#SC"
       transform="translate("
       id="use286" />
  </g>
  <g
     title="Mid-Atlantic_Ocean"
     id="g294">
    <polygon
       class="w"
       points="102,317 100,322 103,328 109,329 123,344 122,350 123,357 128,363 121,382 122,384 112,399 101,396 96,397 72,384 59,381 54,375 48,374 46,378 39,375 33,381 35,384 32,396   30,406 17,427 14,427 10,433 13,440 15,441 12,450 13,454 8,462 19,469 27,468 33,475 34,484 37,490 37,495 33,496 17,518 0,520 0,273 58,273"
       id="polygon290" />
    <text
       x="50"
       y="355"
       id="text292">MAO</text>
  </g>
  <g
     title="Moscow"
     id="g302">
    <polygon
       class="l"
       points="609,117 598,132 573,143 564,159 534,164 515,169 489,184 476,183 458,194 456,207 457,210 451,213 447,209 439,211 428,225 421,229 409,228 405,239 404,275 392,278   389,285 379,290 386,309 390,306 456,292 468,295 477,289 494,295 505,280 516,286 526,287 533,283 549,284 554,304 564,305 569,321 597,330 609,330"
       id="polygon296" />
    <text
       x="460"
       y="265"
       id="text298">Mos</text>
    <use
       xlink:href="#SC"
       transform="translate("
       id="use300" />
  </g>
  <g
     title="Munich"
     id="g310">
    <polygon
       class="l"
       points="234,366 243,370 246,369 250,371 267,368 271,370 269,362 275,362 281,356 276,346 268,343 264,329 266,325 278,326 288,321 284,314 288,305 263,310 243,322 237,322   219,344 211,346 213,352 209,363 222,365 225,362 232,363"
       id="polygon304" />
    <text
       x="235"
       y="360"
       id="text306">Mun</text>
    <use
       xlink:href="#SC"
       transform="translate("
       id="use308" />
  </g>
  <g
     title="Naples"
     id="g318">
    <polygon
       class="l"
       points="271,464 276,474 290,487 294,502 289,511 290,514 295,515 308,500 311,491 304,484 293,481 279,458"
       id="polygon312" />
    <text
       x="293"
       y="493"
       id="text314">Nap</text>
    <use
       xlink:href="#SC"
       transform="translate("
       id="use316" />
  </g>
  <g
     title="North Atlantic Ocean"
     id="g324">
    <polygon
       class="w"
       points="70,261 64,250 67,242 71,245 81,234 74,228 80,225 78,218 82,217 89,220 94,220 95,218 94,216 97,216 101,212 110,212 119,217 120,227 130,227 130,223 138,217 138,214   130,208 129,197 139,189 140,182 148,177 148,0 0,0 0,273 58,273"
       id="polygon320" />
    <text
       x="65"
       y="120"
       id="text322">NAO</text>
  </g>
  <g
     title="North Africa"
     id="g330">
    <polygon
       class="l"
       points="203,520 179,515 169,518 150,511 117,509 106,511 99,515 89,512 84,518 79,520 68,516 68,511 64,514 46,509 42,502 41,494 37,495 33,496 17,518 0,520 0,559 195,559 197,527"
       id="polygon326" />
    <text
       x="130"
       y="536"
       id="text328">Naf</text>
  </g>
  <g
     title="Norway"
     id="g338">
    <polygon
       class="l"
       points="397,48 391,47 395,41 394,38 384,33 382,40 380,33 377,31 374,38 371,33 366,42 366,33 362,33 357,39 343,44 324,54 320,64 310,75 309,84 303,86 292,111 277,132 269,134   264,142 258,141 236,154 237,160 233,167 231,180 233,186 229,192 231,201 241,209 246,210 266,201 270,193 275,203 279,204 287,177 285,170 290,164 292,133 301,132 300,126 309,115 308,104 311,101   324,71 332,74 330,64 341,65 342,61 346,54 355,62 369,61 370,49 379,48 388,54 386,58 388,61"
       id="polygon332" />
    <text
       x="250"
       y="175"
       id="text334">Nwy</text>
    <use
       xlink:href="#SC"
       transform="translate("
       id="use336" />
  </g>
  <g
     title="Paris"
     id="g346">
    <polygon
       class="l"
       points="146,365 149,372 156,374 165,365 185,344 188,332 172,328 165,331 159,331 148,329 146,337"
       id="polygon340" />
    <text
       x="155"
       y="358"
       id="text342">Par</text>
    <use
       xlink:href="#SC"
       transform="translate("
       id="use344" />
  </g>
  <g
     title="Picardy"
     id="g352">
    <polygon
       class="l"
       points="169,311 153,315 155,320 150,319 148,329 159,331 165,331 172,328 188,332 192,323 184,315"
       id="polygon348" />
    <text
       x="168"
       y="326"
       id="text350">Pic</text>
  </g>
  <g
     title="Piedmont"
     id="g358">
    <polygon
       class="l"
       points="207,386 204,390 207,396 201,399 204,402 203,410 211,416 222,410 233,415 236,411 233,404 246,392 243,388 229,385 227,390 221,385 213,387"
       id="polygon354" />
    <text
       x="215"
       y="408"
       id="text356">Pie</text>
  </g>
  <g
     title="Portugal"
     id="g366">
    <polygon
       class="l"
       points="32,396 30,406 17,427 14,427 10,433 13,440 15,441 12,450 13,454 8,462 19,469 27,468 36,457 34,447 40,441 37,431 42,432 52,412 61,411 62,407 55,400 42,399 43,395"
       id="polygon360" />
    <text
       x="22"
       y="440"
       id="text362">Por</text>
    <use
       xlink:href="#SC"
       transform="translate("
       id="use364" />
  </g>
  <g
     title="Prussia"
     id="g372">
    <polygon
       class="l"
       points="347,243 347,248 348,254 344,262 337,264 334,273 328,274 326,265 314,266 307,273 294,275 292,290 297,296 296,300 320,303 324,299 326,292 341,287 345,289 359,286   365,281 367,265 362,260 356,261 354,251"
       id="polygon368" />
    <text
       x="335"
       y="283"
       id="text370">Pru</text>
  </g>
  <g
     title="Rome"
     id="g380">
    <polygon
       class="l"
       points="247,442 248,447 256,458 271,464 279,458 280,455 279,451 274,447 263,434 250,438"
       id="polygon374" />
    <text
       x="257"
       y="452"
       id="text376">Rom</text>
    <use
       xlink:href="#SC"
       transform="translate("
       id="use378" />
  </g>
  <g
     title="Ruhr"
     id="g386">
    <polygon
       class="l"
       points="213,302 210,313 208,315 210,326 205,331 204,338 211,346 219,344 237,322 243,322 241,316 232,308"
       id="polygon382" />
    <text
       x="215"
       y="330"
       id="text384">Ruh</text>
  </g>
  <g
     title="Rumania"
     id="g394">
    <polygon
       class="l"
       points="403,360 404,371 394,376 395,382 401,385 406,396 401,402 387,402 367,406 365,412 367,421 370,425 375,423 382,427 390,425 398,427 404,422 410,420 422,420 430,423 432,409   439,404 438,397 427,399 422,382 423,376 414,372 411,361"
       id="polygon388" />
    <text
       x="410"
       y="415"
       id="text390">Rum</text>
    <use
       xlink:href="#SC"
       transform="translate("
       id="use392" />
  </g>
  <g
     title="Serbia"
     id="g402">
    <polygon
       class="l"
       points="365,412 360,413 342,410 338,412 335,410 332,410 330,416 331,424 327,429 330,437 337,446 346,452 346,466 350,471 356,471 361,467 369,464 365,461 371,456 366,439 371,438   368,433 365,425 367,421"
       id="polygon396" />
    <text
       x="350"
       y="450"
       id="text398">Ser</text>
    <use
       xlink:href="#SC"
       transform="translate("
       id="use400" />
  </g>
  <g
     title="Sevastopol"
     id="g410">
    <polygon
       class="l"
       points="438,397 446,378 459,375 461,377 459,379 465,383 476,381 478,383 472,385 468,392 477,396 477,401 486,404 488,397 494,396 497,392 507,389 506,384 494,387 485,378 503,364   526,351 527,354 514,365 517,371 520,371 515,384 511,383 510,386 517,393 528,394 554,406 567,408 573,417 570,427 589,442 594,439 603,441 609,440 609,330 597,330 569,321 564,305 554,304 549,284   533,283 526,287 516,286 505,280 494,295 477,289 468,295 470,303 466,307 460,345 445,350 434,360 432,372 423,376 422,382 427,399"
       id="polygon404" />
    <text
       x="540"
       y="350"
       id="text406">Sev</text>
    <use
       xlink:href="#SC"
       transform="translate("
       id="use408" />
  </g>
  <g
     title="Silesia"
     id="g416">
    <polygon
       class="l"
       points="288,321 297,322 311,334 314,332 321,339 325,340 329,338 333,330 326,327 323,322 320,303 296,300 288,305 284,314"
       id="polygon412" />
    <text
       x="304"
       y="325"
       id="text414">Sil</text>
  </g>
  <g
     title="Skagerrak"
     id="g422">
    <polygon
       class="w"
       points="241,209 246,210 266,201 270,193 275,203 277,218 276,224 282,236 279,240 279,243 275,242 269,243 266,240 267,234 266,221 263,223 248,224 241,224"
       id="polygon418" />
    <text
       x="255"
       y="220"
       id="text420">SKA</text>
  </g>
  <g
     title="Smyrna"
     id="g430">
    <polygon
       class="l"
       points="417,489 420,495 417,498 417,507 423,510 427,524 435,523 435,530 441,526 447,528 453,534 464,531 466,521 475,520 485,528 491,530 505,526 511,514 520,517 527,508 530,509   536,494 545,486 555,484 563,479 562,471 556,467 555,460 546,462 531,460 508,480 501,482 490,480 473,491 466,491 452,495 432,493 423,487"
       id="polygon424" />
    <text
       x="460"
       y="510"
       id="text426">Smy</text>
    <use
       xlink:href="#SC"
       transform="translate("
       id="use428" />
  </g>
  <g
     title="Spain (nc)"
     id="g434">
    <polyline
       class="l"
       points="134,417 123,412 113,407 112,399 101,396 96,397 72,384 59,381 54,375 48,374 46,378 39,375 33,381 35,384 32,396 43,395 42,399 55,400 62,407 61,411 52,412 42,432 37,431 40,441"
       id="polyline432" />
  </g>
  <g
     title="Spain (sc)"
     id="g442">
    <polyline
       class="l"
       points="40,441 34,447 36,457 27,468 33,475 34,484 37,490 47,488 52,489 60,486 78,491 83,494 86,485 90,483 98,484 107,474 113,473 115,469 110,461 124,444 131,439 146,438   157,432 158,425 154,427 142,417 135,414 134,417 123,412"
       id="polyline436" />
    <text
       x="85"
       y="450"
       id="text438">Spa</text>
    <use
       xlink:href="#SC"
       transform="translate("
       id="use440" />
  </g>
  <g
     title="St Petersburg (nc)"
     id="g448">
    <polyline
       class="l"
       points="534,164 564,159 573,143 598,132 609,117 609,0 540 0 535,9 530,6 517,19 516,33 513,38 513,23 507,20 505,26 499,33 492,48 495,58 488,60 479,57 477,55 481,50 473,43 466,45 472,62   478,66 478,74 472,72 468,74 457,91 469,100 467,106 462,109 444,101 442,110 447,115 454,119 452,122 434,118 426,103 426,94 414,88 412,83 445,84 457,79 459,66 453,61 417,47 405,49 401,45 397,48   388,61 387,68 393,73 392,92 401,110 402,118 410,130 414,147"
       id="polyline444" />
    <text
       x="460"
       y="149"
       id="text446">Stp</text>
  </g>
  <g
     title="St Petersburg (sc)"
     id="g454">
    <polyline
       class="l"
       points="414,147 410,152 412,161 402,177 403,183 411,184 414,187 408,187 400,192 399,197 387,196 371,198 369,202 372,205 382,206 394,205 405,217 409,228 421,229 428,225 439,211   447,209 451,213 457,210 456,207 458,194 476,183 489,184 515,169 534,164 564,159"
       id="polyline450" />
    <use
       xlink:href="#SC"
       transform="translate("
       id="use452" />
  </g>
  <g
     title="Sweden"
     id="g462">
    <polygon
       class="l"
       points="275,203 277,218 276,224 282,236 279,240 279,243 282,253 289,254 294,245 305,244 312,229 311,220 314,209 322,206 328,203 331,193 326,183 320,182 321,161 330,146 343,138   351,128 347,121 349,112 355,104 362,107 356,71 342,61 341,65 330,64 332,74 324,71 311,101 308,104 309,115 300,126 301,132 292,133 290,164 285,170 287,177 279,204"
       id="polygon456" />
    <text
       x="300"
       y="170"
       id="text458">Swe</text>
    <use
       xlink:href="#SC"
       transform="translate("
       id="use460" />
  </g>
  <g
     title="Syria"
     id="g468">
    <polygon
       class="l"
       points="530,509 536,494 545,486 555,484 563,479 584,478 609,493 609,559 528,559 532,535 526,530 525,518"
       id="polygon464" />
    <text
       x="570"
       y="535"
       id="text466">Syr</text>
  </g>
  <g
     title="Trieste"
     id="g476">
    <polygon
       class="l"
       points="276,399 275,403 278,410 282,401 286,402 289,418 306,436 331,454 330,445 337,446 330,437 327,429 331,424 330,416 332,410 323,408 321,398 311,394 308,383 299,385 294,380   289,385 276,386 279,389"
       id="polygon470" />
    <text
       x="305"
       y="425"
       id="text472">Tri</text>
    <use
       xlink:href="#SC"
       transform="translate("
       id="use474" />
  </g>
  <g
     title="Tunis"
     id="g484">
    <polygon
       class="l"
       points="232,559 234,551 232,544 225,535 231,531 236,524 233,523 224,527 223,518 218,516 212,517 208,521 203,520 197,527 195,559"
       id="polygon478" />
    <text
       x="210"
       y="555"
       id="text480">Tun</text>
    <use
       xlink:href="#SC"
       transform="translate("
       id="use482" />
  </g>
  <g
     title="Tuscany"
     id="g490">
    <polygon
       class="l"
       points="233,415 238,431 247,442 250,438 263,434 253,418 246,416 240,415 236,411"
       id="polygon486" />
    <text
       x="240"
       y="425"
       id="text488">Tus</text>
  </g>
  <g
     title="Tyrolia"
     id="g496">
    <polygon
       class="l"
       points="234,366 243,370 246,369 250,371 267,368 271,370 269,362 275,362 281,356 292,357 295,362 294,380 289,385 276,386 268,385 259,388 255,394 250,397 246,392 243,388 245,384   241,378 234,374"
       id="polygon492" />
    <text
       x="255"
       y="380"
       id="text494">Tyr</text>
  </g>
  <g
     title="Tyrrhenian Sea"
     id="g502">
    <polygon
       class="w"
       points="238,431 247,442 248,447 256,458 271,464 276,474 290,487 294,502 289,511 285,511 285,508 276,510 263,510 257,507 252,508 247,513 236,524 233,523 224,527 223,518   218,516 218,490 220,490 224,468 222,458 218,458 218,454 223,450 225,444 225,436 224,431"
       id="polygon498" />
    <text
       x="245"
       y="495"
       id="text500">TYS</text>
  </g>
  <g
     title="Ukraine"
     id="g508">
    <polygon
       class="l"
       points="383,327 385,332 399,338 404,354 403,360 411,361 414,372 423,376 432,372 434,360 445,350 460,345 466,307 470,303 468,295 456,292 390,306 386,309"
       id="polygon504" />
    <text
       x="420"
       y="340"
       id="text506">Ukr</text>
  </g>
  <g
     title="Venice"
     id="g516">
    <polygon
       class="l"
       points="278,443 272,424 260,417 261,401 270,398 276,399 279,389 276,386 268,385 259,388 255,394 250,397 246,392 233,404 236,411 240,415 246,416 253,418 263,434 274,447"
       id="polygon510" />
    <text
       x="245"
       y="407"
       id="text512">Ven</text>
    <use
       xlink:href="#SC"
       transform="translate("
       id="use514" />
  </g>
  <g
     title="Vienna"
     id="g524">
    <polygon
       class="l"
       points="292,357 295,349 303,346 316,348 322,347 329,346 337,350 335,354 322,370 311,375 308,383 299,385 294,380 295,362"
       id="polygon518" />
    <text
       x="307"
       y="370"
       id="text520">Vie</text>
    <use
       xlink:href="#SC"
       transform="translate("
       id="use522" />
  </g>
  <g
     title="Wales"
     id="g530">
    <polygon
       class="l"
       points="100,291 112,287 122,281 130,282 127,276 119,272 116,272 115,265 128,262 143,262 150,264 153,271 150,277 145,281 147,295 134,294 124,291 120,295 110,292"
       id="polygon526" />
    <text
       x="130"
       y="275"
       id="text528">Wal</text>
  </g>
  <g
     title="Warsaw"
     id="g538">
    <polygon
       class="l"
       points="333,330 326,327 323,322 320,303 324,299 326,292 341,287 345,289 359,286 365,281 372,283 379,290 386,309 383,327 379,324 374,327 367,329 361,324 356,323 353,327   344,332 341,330"
       id="polygon532" />
    <text
       x="355"
       y="304"
       id="text534">War</text>
    <use
       xlink:href="#SC"
       transform="translate("
       id="use536" />
  </g>
  <g
     title="Western Mediterranean"
     id="g544">
    <polygon
       class="w"
       points="37,490 47,488 52,489 60,486 78,491 83,494 86,485 90,483 98,484 107,474 113,473 115,469 142,469 150,471 154,466 205,466 206,476 204,485 208,492 212,492 217,489 218,490   218,516 212,517 208,521 203,520 179,515 169,518 150,511 117,509 106,511 99,515 89,512 84,518 79,520 68,516 68,511 64,514 46,509 42,502 41,494 37,495"
       id="polygon540" />
    <text
       x="160"
       y="491"
       id="text542">WES</text>
  </g>
  <g
     title="Yorkshire"
     id="g550">
    <polygon
       class="l"
       points="163,226 163,239 168,246 170,252 169,265 166,269 153,271 150,264 151,248 155,239 155,228"
       id="polygon546" />
    <text
       x="155"
       y="254"
       id="text548">Yor</text>
  </g>
  <defs
     id="defs568">
    <g
       id="A">
      <path
         d="M9,-6 L2,0 M9,6 L0,0"
         id="path552" />
      <path
         d="M-11,-6 v4 h17 a2,2 0,0 0 0,-4z"
         id="path554" />
      <circle
         r="6"
         id="circle556" />
    </g>
    <g
       id="F">
      <polygon
         points="-2,-3 10,-3 -2,-13"
         id="polygon559" />
      <polygon
         points="-12,-1 -6,5 6,5 12,-1"
         id="polygon561" />
    </g>
    <g
       id="sc">
      <!-- colored SC -->
      <circle
         r="4"
         id="circle564" />
    </g>
    <use
       id="SC"
       xlink:href="#sc"
       class="Unowned" />
  </defs>
</svg>
